PathFileType	4	(X/Y/Z)	5_coords_data.trc
DataRate	CameraRate	NumFrames	NumMarkers	Units	OrigDataRate	OrigDataStartFrame	OrigNumFrames
30.0	30.0	6	21	m	30.0	31	70
Frame#	Time	THUMB_TIP	THUMB_IP	THUMB_MCP	THUMB_CMC	INDEX_TIP	INDEX_DIP	INDEX_PIP	INDEX_MCP	MIDDLE_TIP	MIDDLE_DIP	MIDDLE_PIP	MIDDLE_MCP	RING_TIP	RING_DIP	RING_PIP	RING_MCP	PINKY_TIP	PINKY_DIP	PINKY_PIP	PINKY_MCP	WRIST
X1	Y1	Z1	X2	Y2	Z2	X3	Y3	Z3	X4	Y4	Z4	X5	Y5	Z5	X6	Y6	Z6	X7	Y7	Z7	X8	Y8	Z8	X9	Y9	Z9	X10	Y10	Z10	X11	Y11	Z11	X12	Y12	Z12	X13	Y13	Z13	X14	Y14	Z14	X15	Y15	Z15	X16	Y16	Z16	X17	Y17	Z17	X18	Y18	Z18	X19	Y19	Z19	X20	Y20	Z20	X21	Y21	Z21
29	0.9999999999999956	0.5355420098555609	-0.01692877910490781	-0.11100756336022274	0.5175058112318426	-0.021129120648194888	-0.12461096992348919	0.4866499327782572	-0.019439268403048382	-0.12088549488704865	0.4732584569179762	-0.022524400580662463	-0.07844682933627803	0.5766531507354418	0.046903360699422025	-0.14086034900779276	0.5602409603453172	0.04464528809060564	-0.13354316958593815	0.5381146584863792	0.0420083532791109	-0.1219034456267076	0.5013572927828714	0.03231612172506304	-0.10270467462329917	0.5008101692651153	-0.02460357130939428	-0.10341394846785393	0.5149879471384987	-0.015171512317894209	-0.10958054215917681	0.5345082117625488	0.00579477662535377	-0.11494557216424633	0.5132946172190035	0.031328957548047875	-0.08504344962839294	0.5147059682069552	-0.02767205985287946	-0.0981165550797912	0.5283153365229368	-0.01589873317265772	-0.09920000924159894	0.5464271093674283	0.0011429381998100951	-0.1005134399639257	0.5254588020327263	0.02163502221788799	-0.07267236573692204	0.595088468391894	0.026488853786410693	-0.09332807783309688	0.5802222209611672	0.01996706107317381	-0.08790028757057047	0.5615353110698441	0.012797986404619877	-0.08155869580585773	0.5308242296593665	-0.0021932153542896793	-0.0700271391276509	0.4622830810018609	-0.023011742144276925	-0.051989820119430985
30	1.0333333333333288	0.535592044924321	-0.01705973152106477	-0.11080109250723191	0.5176387583393061	-0.02131732406338993	-0.12449606992743452	0.48677632048353736	-0.019576890981039874	-0.12084904068643867	0.4732972298293783	-0.022569721944291854	-0.07843150801464874	0.5767671127332461	0.04667532317097389	-0.14089107670760798	0.5603562622136394	0.04447593717843756	-0.13355304655783634	0.5382320998637876	0.04188412738219338	-0.12189912896341791	0.501450078799432	0.03222756986411346	-0.10272962408401835	0.5008142188333047	-0.024668698200254358	-0.10336654091085863	0.515006860467676	-0.015261634217550724	-0.10953712197455348	0.534563592919786	0.005650795914846518	-0.1149789995691153	0.5133930973422404	0.031217593102984997	-0.08507420196836687	0.5147067346642628	-0.027742260391965867	-0.09806981141333065	0.5283505647567628	-0.016008653605476042	-0.09915072407725267	0.5464768617378422	0.001012162690944507	-0.10053244378733059	0.5255418640284171	0.02151603761452897	-0.07267498844725381	0.5950531378084761	0.026393583277102617	-0.0934985980133701	0.580203956939818	0.019850045670033067	-0.08805030074589781	0.5615371320658613	0.012667915003475916	-0.08166448308380239	0.5308592160626118	-0.0023150658524003775	-0.07003438397115422	0.4622830810018608	-0.023011742144276925	-0.051989820119430985
31	1.0666666666666622	0.5356104963343374	-0.0172996504658276	-0.11035442966563616	0.517832114802806	-0.021598323998544333	-0.12426308006667872	0.48695449682943726	-0.019760534727370493	-0.12079677960574764	0.4733505366734686	-0.022622123286248408	-0.07841006495369518	0.5769186254460382	0.0461549635262441	-0.1410599818009014	0.5605280155299504	0.04411037938912066	-0.13363249351179163	0.5384246619650698	0.04166762005112601	-0.1219071141574798	0.5016128237510373	0.032086690528266126	-0.10275690656638842	0.5007262126471889	-0.02466900280350176	-0.10329741901479887	0.5149670443456941	-0.01535021032620787	-0.10949086872396577	0.5346341606905725	0.005435423933135508	-0.1150200181263448	0.5135354665485874	0.03105917490902027	-0.08511322270408642	0.5146577489822087	-0.027857087176305473	-0.09805729533187574	0.5283702570446148	-0.01620150639847462	-0.0991130222709578	0.5465383909594627	0.0007673732963653368	-0.10058135838854218	0.5256675679563367	0.02131984123073205	-0.07271156034515802	0.5950826455254241	0.02612361022866283	-0.09368643493207238	0.5802379780221566	0.019587327834202695	-0.088217169974393	0.5615794700949649	0.012407913895879807	-0.08180404932738006	0.530905068776307	-0.0025180318405699786	-0.07009163289803144	0.4622830810018608	-0.023011742144276925	-0.051989820119430985
32	1.0999999999999952	0.5356535988195249	-0.017637632844899165	-0.10967972778071178	0.5181345450651952	-0.021898675466132222	-0.12392494702552986	0.4872352199361252	-0.01996954995572303	-0.12071088708005431	0.47340771038439355	-0.022684092986003157	-0.07838688401165905	0.5770433069673461	0.045255665986786986	-0.1414458641953562	0.5607014251349924	0.043499641515065135	-0.13383933566835354	0.5386523166729201	0.04136838752474292	-0.12195218270994891	0.5018227834133079	0.03192725804566038	-0.10276659832900498	0.5004879830479413	-0.02461005801486127	-0.10317114814918898	0.5148462350161778	-0.01547266931857405	-0.10936378314808867	0.5346780240196042	0.005123495553796709	-0.11501247215295544	0.5137077757354988	0.030883524330078183	-0.08513241985467246	0.514478713945674	-0.02803384988251134	-0.09799334677662913	0.528286373987799	-0.016493534057209935	-0.09907484333853106	0.5465459080026744	0.0003702937263500572	-0.10061779798661447	0.5258309765861899	0.02107118043661238	-0.07274154035006586	0.5952107745932663	0.02565502597384145	-0.09382782642978113	0.5803483628589379	0.019167161027565216	-0.08834911071547591	0.5616812245010174	0.01202904256201448	-0.08191504284996354	0.5309632250405092	-0.0027596513631735764	-0.07014293632091273	0.4622830810018609	-0.023011742144276925	-0.051989820119430985
33	1.1333333333333284	0.5357097870007759	-0.018088896261201803	-0.10928609518443365	0.5183198093312237	-0.02218045906901439	-0.12373766224279115	0.48741333559246613	-0.02014544092904652	-0.12066055610138132	0.47341144675242663	-0.02273127781653428	-0.07838585259559105	0.5770854717501962	0.043748773885196324	-0.14216127548743512	0.5608366071789695	0.04246374995511021	-0.13426677653911406	0.5388960767699906	0.04086980049308625	-0.12209787011802654	0.5020549308605602	0.031745323196502306	-0.10278181523758617	0.5000124293373759	-0.024521494621180473	-0.1029439000992825	0.5145170947428485	-0.015628729020133347	-0.10915142790349924	0.5346736869600069	0.004593907096967775	-0.11499662496318064	0.5139545968166708	0.03062161121734225	-0.08517338163093136	0.514048691805827	-0.028175021145753376	-0.09784855070781534	0.5280112176508832	-0.01682751506699187	-0.09898079530091822	0.5464784374501436	-0.0002019487247146845	-0.10063376707452729	0.5260335137927681	0.02076900271832971	-0.07276003165536316	0.5954659799186811	0.024890439114946483	-0.09392743335381698	0.5805584111825415	0.01852125970164198	-0.08843216739315507	0.5618506514272258	0.011496816446356861	-0.08199097644033701	0.5310471743053667	-0.003091590524970711	-0.07019234811997574	0.4622830810018609	-0.023011742144276925	-0.051989820119430985
34	1.1666666666666616	0.5357512417827672	-0.018599954500390925	-0.10956620993508615	0.5181829342275851	-0.02230926520859433	-0.12390481459929752	0.4872953110813606	-0.02017652355516103	-0.1207069794852668	0.47334403081430043	-0.022741554985010848	-0.07841428043834123	0.5769594552366805	0.04147342988994551	-0.14324443174147627	0.5608704860264446	0.04088809620133732	-0.13494970725991207	0.5391163161043857	0.04010579763360367	-0.1223737805364809	0.502271599199506	0.03157503267997086	-0.10279499151608573	0.49935927820031367	-0.024160816460739143	-0.10243020013803786	0.5140637268325324	-0.015707321092972515	-0.1087798148105659	0.5346563234864182	0.003965182761255015	-0.11497231875935594	0.5142341877905982	0.030316496903627754	-0.08522853726487373	0.513510340328162	-0.028182778032241007	-0.09751670946128493	0.5276643862962433	-0.01709244461829118	-0.098808021778609	0.5464241612258358	-0.0008131328106956714	-0.10060658527821542	0.5262488358264166	0.02045357564921091	-0.07276050493808692	0.5958945067962631	0.023704313592012305	-0.09399582361745187	0.580901891239528	0.01757494546012839	-0.08845936942078525	0.5621141928887532	0.010803557418969822	-0.08197996252845688	0.5311520827633786	-0.003428046209214386	-0.07016079818598248	0.4622830810018609	-0.023011742144276925	-0.051989820119430985
